<svg xmlns="http://www.w3.org/2000/svg" xmlns:xlink="http://www.w3.org/1999/xlink"><symbol id="arrow-down"><path d="M5.662 10 .162 0h11"/></symbol><symbol id="arrow-up"><path d="m5.662 0 5.5 10h-11"/></symbol><symbol id="exit"><path d="M20 8.5 11.125 0v6h-6v5h6v6L20 8.5Z"/><path d="M2.106 13.952V3.048c.018-.376.171-1.057 1.01-1.057h5.027V0H3.116C.938 0 .112 1.81.087 3.027v10.946C.112 15.189.938 17 3.116 17h5.027v-1.99H3.116c-.839 0-.992-.683-1.01-1.058Z"/></symbol><symbol id="login"><path d="M14.167 8.5 5.714 0v6H0v5h5.714v6l8.453-8.5Z"/><path d="M16.177 15.01H11.39V17h4.788c2.074 0 2.861-1.81 2.885-3.026V3.028C19.038 1.811 18.252 0 16.177 0H11.39v1.99h4.788c.8 0 .945.681.962 1.057v10.904c-.016.376-.163 1.059-.962 1.059Z"/></symbol><symbol id="search"><path d="M13.458 12.044 17 15.586 15.586 17l-3.542-3.542A7.465 7.465 0 0 1 7.5 15 7.5 7.5 0 1 1 15 7.5c0 1.643-.542 3.24-1.542 4.544ZM7.5 2A5.506 5.506 0 0 0 2 7.5 5.506 5.506 0 0 0 7.5 13c3.032 0 5.5-2.468 5.5-5.5C13 4.467 10.532 2 7.5 2Z" clip-rule="evenodd"/></symbol><symbol id="user"><path d="M17.881 14.166c-2.144-.735-4.256-1.666-5.207-2.39-.657-.501-.77-1.618-.517-2.415 1.118-.903 1.864-2.477 1.864-4.278C14.021 2.276 12.221 0 10 0S5.979 2.276 5.979 5.083c0 1.801.746 3.374 1.863 4.277.253.798.141 1.915-.517 2.416-.95.724-3.063 1.654-5.207 2.39C-.026 14.902 0 18 0 18h20s.025-3.099-2.119-3.834Z"/></symbol></svg>