<svg xmlns="http://www.w3.org/2000/svg">
  <symbol id="search" viewBox="0 0 17 17">
    <path fill-rule="evenodd" d="M13.458 12.044 17 15.586 15.586 17l-3.542-3.542C10.782 14.421 9.21 15 7.5 15 3.35786 15 0 11.6421 0 7.5 0 3.35786 3.35786 0 7.5 0 11.6421 0 15 3.35786 15 7.5c.0001 1.64309-.5419 3.2403-1.542 4.544ZM7.5 2C4.467 2 2 4.467 2 7.5c.00331 3.0362 2.4638 5.4967 5.5 5.5 3.032 0 5.5-2.468 5.5-5.5C13 4.467 10.532 2 7.5 2Z" clip-rule="evenodd"/>
  </symbol>
  <symbol id="login" viewBox="0 0 20 17">
    <path d="M14.1667 8.5 5.71429 0v6H0v5h5.71429v6l8.45241-8.5Z"/>
    <path d="M16.1771 15.01h-4.7876V17h4.7876c2.0743 0 2.861-1.81 2.8848-3.026V3.028C19.0381 1.811 18.2514 0 16.1771 0h-4.7876v1.99h4.7876c.7991 0 .9448.681.962 1.057v10.904c-.0162.376-.1629 1.059-.962 1.059Z"/>
  </symbol>
  <symbol id="user" viewBox="0 0 20 18">
    <path d="M17.881 14.166c-2.144-.735-4.256-1.666-5.207-2.39-.657-.501-.77-1.618-.517-2.415 1.118-.903 1.864-2.477 1.864-4.278C14.021 2.276 12.221 0 10 0 7.77902 0 5.97901 2.276 5.97901 5.083c0 1.801.746 3.374 1.863 4.277.253.798.14101 1.915-.51699 2.416-.95.724-3.06301 1.654-5.20701 2.39C-.0259852 14.902.00001483 18 .00001483 18H20s.025-3.099-2.119-3.834Z"/>
  </symbol>
  <symbol id="exit" viewBox="0 0 20 17">
    <path d="M20 8.5 11.125 0v6h-6v5h6v6L20 8.5Z"/>
    <path d="M2.106 13.952V3.048c.018-.376.171-1.057 1.01-1.057h5.027V0H3.116C.938 0 .112 1.81.087 3.027v10.946C.112 15.189.938 17 3.116 17h5.027v-1.99H3.116c-.839 0-.992-.683-1.01-1.058Z"/>
  </symbol>
  <symbol id="arrow-up" viewBox="0 0 12 10">
    <path d="m5.662 0 5.5 10h-11"/>
  </symbol>
  <symbol id="arrow-down" viewBox="0 0 12 10">
    <path d="M5.662 10 .162 0h11"/>
  </symbol>
</svg>
