<svg xmlns="http://www.w3.org/2000/svg" width="108" height="18" fill="#ee3643"><path fill="#fff" fill-rule="evenodd" d="M103.847 2.65852V17.4498h-2.113V2.65852h-3.7561V1.01504h9.6261v1.64348h-3.757Zm-8.1347 8.69868c-.3679.4618-.8296.7905-1.3852.9861-.5557.1957-1.217.2935-1.984.2935-.36 0-.7669-.0235-1.2208-.0705-.4539-.0469-.8296-.1017-1.127-.1643v5.0478h-2.113V1.24983c.5948-.17218 1.1935-.293482 1.7961-.363917.6026-.070435 1.256-.105652 1.9604-.105652.9391 0 1.7374.097826 2.3948.293479.6574.19565 1.1895.52043 1.5965.97435.407.45391.7043 1.05652.8922 1.80782.1878.75131.2817 1.68261.2817 2.79392 0 1.1426-.09 2.09739-.27 2.86434-.18.76693-.4539 1.38133-.8217 1.84303Zm-1.1974-6.82042c-.1174-.56348-.3013-1.00956-.5518-1.33826-.2504-.32869-.5674-.55956-.9508-.69261-.3835-.13304-.8413-.19956-1.3735-.19956h-1.6435v8.68695h1.6435c.5322 0 .99-.0665 1.3735-.1996.3834-.133.7004-.3639.9508-.6926.2505-.32866.4344-.77475.5518-1.33823.1174-.56348.1761-1.26783.1761-2.11304 0-.84522-.0587-1.54957-.1761-2.11305ZM82.5997 13.2237H77.904l-1.0565 4.2261h-2.1131l3.9913-16.43476h3.0522l3.9913 16.43476h-2.113l-1.0565-4.2261Zm-2.3009-9.86083h-.0939l-1.9487 8.21743h3.9913l-1.9487-8.21743ZM70.1562 5.24113h-.1174L66.6344 15.3368h-2.113L61.1171 5.24113h-.1174l-.7044 12.20867h-2.113l.9391-16.43476h2.5826l3.827 11.26956h.0939l3.8269-11.26956h2.5826l.9392 16.43476h-2.1131l-.7043-12.20867ZM54.3788 15.9237c-.4383.6418-.9665 1.0957-1.5848 1.3618s-1.3265.3991-2.1248.3991c-.7982 0-1.5065-.133-2.1248-.3991-.6182-.2661-1.1465-.72-1.5847-1.3618-.4383-.6417-.7709-1.5065-.9979-2.5943-.2269-1.0878-.3404-2.4535-.3404-4.09696 0-1.64348.1135-3.00914.3404-4.09696.227-1.08783.5596-1.95261.9979-2.59435.4382-.64174.9665-1.09565 1.5847-1.36174.6183-.266085 1.3266-.399129 2.1248-.399129.7983 0 1.5065.133044 2.1248.399129.6183.26609 1.1465.72 1.5848 1.36174.4383.64174.7709 1.50652.9978 2.59435.227 1.08782.3405 2.45348.3405 4.09696 0 1.64346-.1135 3.00916-.3405 4.09696-.2269 1.0878-.5595 1.9526-.9978 2.5943ZM53.3575 5.75765c-.1644-.90782-.3796-1.62782-.6457-2.16-.2661-.53217-.5791-.9-.9391-1.10348-.36-.20347-.7278-.30521-1.1035-.30521-.3756 0-.7435.10174-1.1035.30521-.36.20348-.673.57131-.9391 1.10348-.2661.53218-.4813 1.25218-.6456 2.16-.1644.90783-.2466 2.06609-.2466 3.47479 0 1.40866.0822 2.56696.2466 3.47476.1643.9078.3795 1.6278.6456 2.16.2661.5322.5791.9.9391 1.1035.36.2035.7279.3052 1.1035.3052.3757 0 .7435-.1017 1.1035-.3052.36-.2035.673-.5713.9391-1.1035.2661-.5322.4813-1.2522.6457-2.16.1643-.9078.2465-2.0661.2465-3.47476 0-1.4087-.0822-2.56696-.2465-3.47479ZM40.691 9.93678h-4.9305v7.51302h-2.113V1.01504h2.113V8.2933h4.9305V1.01504h2.113V17.4498h-2.113V9.93678ZM29.5396 17.4498l-2.9348-7.0435-2.9348 7.0435h-2.113l3.5217-8.45215-3.1696-7.98261h2.1131l2.5826 6.57392 2.5826-6.57392h2.113l-3.1695 7.98261 3.5217 8.45215h-2.113ZM12.283 1.01504h7.9827v1.64348h-5.8696v5.4h5.1652V9.702h-5.1652v6.1043h5.8696v1.6435H12.283V1.01504ZM6.64827 17.4498H4.53522V2.65852H.778702V1.01504H10.4048v1.64348H6.64827V17.4498Z" clip-rule="evenodd"/></svg>
