<svg xmlns="http://www.w3.org/2000/svg" width="14" height="12" fill="none"><path fill="#C1C6CE" d="M2 7.99999V12h4V7.99999h2V12h4V7.99999l-5-4.484-5 4.484Z"/><path fill="#C1C6CE" d="M13.831 6.365 12 4.751V0h-2v2.987L7.33201.635c-.02-.017-.043-.023-.064-.037-.02504-.018295-.05184-.03404-.08-.047-.0309-.010805-.06269-.018837-.095-.024-.031-.006-.061-.012-.093-.012-.031 0-.061.006-.092.012-.03247.004919-.06432.0133-.095.025-.028.011-.053.029-.08.046-.021.014-.045.02-.064.037L.171006 6.365c-.1547354.13791-.2085708.35687-.1354281.5508.0731431.19394.2581601.32282.4654281.3242.121931.00035.239736-.04414.331-.125L7.00001 1.677 13.169 7.115c.2088.16413.5094.13678.6852-.06235.1758-.19913.1656-.50082-.0232-.68765Z"/></svg>