<svg xmlns="http://www.w3.org/2000/svg" width="138" height="23" fill="none"><path fill="#fff" fill-rule="evenodd" d="M132.694 3.39708V22.2971h-2.7V3.39708h-4.8v-2.1h12.3v2.1h-4.8ZM122.299 14.5121c-.47.59-1.06 1.01-1.77 1.26s-1.555.375-2.535.375c-.46 0-.98-.03-1.56-.09-.58-.06-1.06-.13-1.44-.21v6.45h-2.7V1.59707c.76-.22 1.525-.375 2.295-.465.77-.09 1.605-.135 2.505-.135 1.2 0 2.22.125 3.06.375.84.25 1.52.665 2.04 1.245.52.58.9 1.35 1.14 2.31.24.96.36 2.15.36 3.57 0 1.46-.115 2.68003-.345 3.66003-.23.98-.58 1.765-1.05 2.355Zm-1.53-8.71504c-.15-.72-.385-1.29-.705-1.71-.32-.42-.725-.715-1.215-.885-.49-.17-1.075-.255-1.755-.255h-2.1V14.0471h2.1c.68 0 1.265-.085 1.755-.255.49-.17.895-.465 1.215-.885.32-.42.555-.99.705-1.71.15-.72.225-1.62004.225-2.70004s-.075-1.98-.225-2.7ZM105.544 16.8971h-6l-1.35 5.4h-2.7l5.1-21.00002h3.9l5.1 21.00002h-2.7l-1.35-5.4Zm-2.94-12.60004h-.12l-2.49 10.50004h5.1l-2.49-10.50004Zm-12.96 2.40002h-.15l-4.35 12.90002h-2.7l-4.35-12.90002h-.15l-.9 15.60002h-2.7l1.2-21.00002h3.3l4.89 14.40002h.12l4.89-14.40002h3.3l1.2 21.00002h-2.7l-.9-15.60002ZM69.484 20.3471c-.56.82-1.235 1.4-2.025 1.74-.79.34-1.695.51-2.715.51-1.02 0-1.925-.17-2.715-.51-.79-.34-1.465-.92-2.025-1.74-.56-.82-.985-1.925-1.275-3.315-.29-1.39-.435-3.135-.435-5.235 0-2.10003.145-3.84503.435-5.23503.29-1.39.715-2.495 1.275-3.315.56-.82 1.235-1.4 2.025-1.74.79-.34 1.695-.51 2.715-.51 1.02 0 1.925.17 2.715.51.79.34 1.465.92 2.025 1.74.56.82.985 1.925 1.275 3.315.29 1.39.435 3.135.435 5.23503 0 2.1-.145 3.845-.435 5.235-.29 1.39-.715 2.495-1.275 3.315ZM68.179 7.35707c-.21-1.16-.485-2.08-.825-2.76-.34-.68-.74-1.15-1.2-1.41-.46-.26-.93-.39-1.41-.39-.48 0-.95.13-1.41.39-.46.26-.86.73-1.2 1.41-.34.68-.615 1.6-.825 2.76-.21 1.16-.315 2.64-.315 4.44003 0 1.8.105 3.28.315 4.44.21 1.16.485 2.08.825 2.76.34.68.74 1.15 1.2 1.41.46.26.93.39 1.41.39.48 0 .95-.13 1.41-.39.46-.26.86-.73 1.2-1.41.34-.68.615-1.6.825-2.76.21-1.16.315-2.64.315-4.44 0-1.80003-.105-3.28003-.315-4.44003ZM51.994 12.6971h-6.3v9.6h-2.7V1.29708h2.7v9.30002h6.3V1.29708h2.7V22.2971h-2.7v-9.6Zm-14.249 9.6-3.75-9-3.75 9h-2.7l4.5-10.8-4.05-10.20002h2.7l3.3 8.4 3.3-8.4h2.7l-4.05 10.20002 4.5 10.8h-2.7ZM15.695 1.29708h10.2v2.1h-7.5v6.90002h6.6v2.1h-6.6v7.8h7.5v2.1h-10.2V1.29708Zm-7.2 21.00002h-2.7V3.39708H.994995v-2.1H13.295v2.1h-4.8V22.2971Z" clip-rule="evenodd"/></svg>