<svg xmlns="http://www.w3.org/2000/svg" width="19" height="19" fill="none"><path fill="#B7BFC8" d="M15.572 18.985h-.941c-4.129-.488-7.157-2.408-9.359-4.864C3.062 11.66 1.318 8.492.977997 4.228V3.084C1.056 2.31 1.437 1.78 1.876 1.327 2.425.765997 3.25.0439969 4.002.0189969c.554-.01800001 1.5.3800001 1.879.8990001C6.21 1.364 6.385 2.257 6.537 2.921c.154.671.505 1.643.408 2.289-.148 1.007-1.487 1.434-1.879 2.166 1.307 3.135 3.443 5.439 6.293 7.031.715-.392 1.346-1.572 2.332-1.595.359-.009.818.178 1.184.286.402.121.75.275 1.104.408.596.224 1.648.521 2.004 1.021.365.513.57 1.356.49 1.879-.164 1.041-1.879 2.197-2.901 2.579Z"/></svg>